<svg xmlns="http://www.w3.org/2000/svg" xmlns:xlink="http://www.w3.org/1999/xlink" width="851" zoomAndPan="magnify" viewBox="0 0 638.25 236.249991" height="315" preserveAspectRatio="xMidYMid meet" version="1.2"><defs><clipPath id="9ce044ebe4"><path d="M 100 52 L 199 52 L 199 133 L 100 133 Z M 100 52 "/></clipPath><clipPath id="98a5af4637"><path d="M 175.957031 20.34375 L 216.742188 102.761719 L 132.316406 144.542969 L 91.527344 62.125 Z M 175.957031 20.34375 "/></clipPath><clipPath id="8e36168148"><path d="M 175.957031 20.34375 L 216.742188 102.761719 L 132.316406 144.542969 L 91.527344 62.125 Z M 175.957031 20.34375 "/></clipPath></defs><g id="03d0d43fb2"><g style="fill:#ffffff;fill-opacity:1;"><g transform="translate(168.895877, 127.665121)"><path style="stroke:none" d="M 43.46875 -10.53125 L 43.46875 0 L 4.8125 0 L 4.8125 -48.140625 L 42.578125 -48.140625 L 42.578125 -37.625 L 18.296875 -37.625 L 18.296875 -29.5 L 39.6875 -29.5 L 39.6875 -19.328125 L 18.296875 -19.328125 L 18.296875 -10.53125 Z M 43.46875 -10.53125 "/></g></g><g style="fill:#ffffff;fill-opacity:1;"><g transform="translate(215.109237, 127.665121)"><path style="stroke:none" d="M 4.203125 -51.03125 L 17.265625 -51.03125 L 17.265625 0 L 4.203125 0 Z M 4.203125 -51.03125 "/></g></g><g style="fill:#ffffff;fill-opacity:1;"><g transform="translate(236.63421, 127.665121)"><path style="stroke:none" d="M 4.203125 -37.28125 L 17.265625 -37.28125 L 17.265625 0 L 4.203125 0 Z M 10.71875 -41.40625 C 8.332031 -41.40625 6.40625 -42.066406 4.9375 -43.390625 C 3.476562 -44.722656 2.75 -46.378906 2.75 -48.359375 C 2.75 -50.328125 3.476562 -51.972656 4.9375 -53.296875 C 6.40625 -54.628906 8.332031 -55.296875 10.71875 -55.296875 C 13.101562 -55.296875 15.03125 -54.664062 16.5 -53.40625 C 17.96875 -52.144531 18.703125 -50.53125 18.703125 -48.5625 C 18.703125 -46.5 17.96875 -44.789062 16.5 -43.4375 C 15.03125 -42.082031 13.101562 -41.40625 10.71875 -41.40625 Z M 10.71875 -41.40625 "/></g></g><g style="fill:#ffffff;fill-opacity:1;"><g transform="translate(258.159183, 127.665121)"><path style="stroke:none" d="M 29.921875 -1.515625 C 28.816406 -0.828125 27.472656 -0.300781 25.890625 0.0625 C 24.304688 0.4375 22.625 0.625 20.84375 0.625 C 15.976562 0.625 12.238281 -0.566406 9.625 -2.953125 C 7.007812 -5.335938 5.703125 -8.894531 5.703125 -13.625 L 5.703125 -26.140625 L 0.28125 -26.140625 L 0.28125 -35.90625 L 5.703125 -35.90625 L 5.703125 -45.609375 L 18.78125 -45.609375 L 18.78125 -35.90625 L 27.3125 -35.90625 L 27.3125 -26.140625 L 18.78125 -26.140625 L 18.78125 -13.75 C 18.78125 -12.425781 19.132812 -11.382812 19.84375 -10.625 C 20.550781 -9.863281 21.503906 -9.484375 22.703125 -9.484375 C 24.210938 -9.484375 25.539062 -9.875 26.6875 -10.65625 Z M 29.921875 -1.515625 "/></g></g><g style="fill:#ffffff;fill-opacity:1;"><g transform="translate(288.899323, 127.665121)"><path style="stroke:none" d="M 42.296875 -18.578125 C 42.296875 -18.484375 42.226562 -17.40625 42.09375 -15.34375 L 15 -15.34375 C 15.539062 -13.414062 16.601562 -11.9375 18.1875 -10.90625 C 19.769531 -9.875 21.753906 -9.359375 24.140625 -9.359375 C 25.929688 -9.359375 27.476562 -9.609375 28.78125 -10.109375 C 30.09375 -10.617188 31.410156 -11.445312 32.734375 -12.59375 L 39.625 -5.4375 C 36 -1.394531 30.703125 0.625 23.734375 0.625 C 19.367188 0.625 15.535156 -0.195312 12.234375 -1.84375 C 8.941406 -3.5 6.390625 -5.796875 4.578125 -8.734375 C 2.765625 -11.671875 1.859375 -14.992188 1.859375 -18.703125 C 1.859375 -22.378906 2.738281 -25.671875 4.5 -28.578125 C 6.269531 -31.492188 8.710938 -33.773438 11.828125 -35.421875 C 14.941406 -37.066406 18.453125 -37.890625 22.359375 -37.890625 C 26.066406 -37.890625 29.429688 -37.125 32.453125 -35.59375 C 35.484375 -34.0625 37.878906 -31.835938 39.640625 -28.921875 C 41.410156 -26.015625 42.296875 -22.566406 42.296875 -18.578125 Z M 22.421875 -28.609375 C 20.398438 -28.609375 18.710938 -28.035156 17.359375 -26.890625 C 16.015625 -25.742188 15.15625 -24.1875 14.78125 -22.21875 L 30.0625 -22.21875 C 29.6875 -24.1875 28.820312 -25.742188 27.46875 -26.890625 C 26.125 -28.035156 24.441406 -28.609375 22.421875 -28.609375 Z M 22.421875 -28.609375 "/></g></g><g style="fill:#ffffff;fill-opacity:1;"><g transform="translate(333.049592, 127.665121)"><path style="stroke:none" d=""/></g></g><g style="fill:#ffffff;fill-opacity:1;"><g transform="translate(353.061629, 127.665121)"><path style="stroke:none" d="M 37.078125 -9.359375 L 16.71875 -9.359375 L 12.9375 0 L -0.96875 0 L 20.296875 -48.140625 L 33.703125 -48.140625 L 55.03125 0 L 40.859375 0 Z M 33.078125 -19.390625 L 26.890625 -34.796875 L 20.703125 -19.390625 Z M 33.078125 -19.390625 "/></g></g><g style="fill:#ffffff;fill-opacity:1;"><g transform="translate(407.114767, 127.665121)"><path style="stroke:none" d="M 43.40625 -37.28125 L 43.40625 0 L 30.953125 0 L 30.953125 -3.984375 C 29.578125 -2.472656 27.925781 -1.328125 26 -0.546875 C 24.070312 0.234375 22.03125 0.625 19.875 0.625 C 15.0625 0.625 11.222656 -0.796875 8.359375 -3.640625 C 5.492188 -6.484375 4.0625 -10.75 4.0625 -16.4375 L 4.0625 -37.28125 L 17.125 -37.28125 L 17.125 -18.578125 C 17.125 -15.773438 17.648438 -13.734375 18.703125 -12.453125 C 19.765625 -11.171875 21.300781 -10.53125 23.3125 -10.53125 C 25.375 -10.53125 27.054688 -11.25 28.359375 -12.6875 C 29.671875 -14.132812 30.328125 -16.347656 30.328125 -19.328125 L 30.328125 -37.28125 Z M 43.40625 -37.28125 "/></g></g><g style="fill:#ffffff;fill-opacity:1;"><g transform="translate(454.703518, 127.665121)"><path style="stroke:none" d="M 29.921875 -1.515625 C 28.816406 -0.828125 27.472656 -0.300781 25.890625 0.0625 C 24.304688 0.4375 22.625 0.625 20.84375 0.625 C 15.976562 0.625 12.238281 -0.566406 9.625 -2.953125 C 7.007812 -5.335938 5.703125 -8.894531 5.703125 -13.625 L 5.703125 -26.140625 L 0.28125 -26.140625 L 0.28125 -35.90625 L 5.703125 -35.90625 L 5.703125 -45.609375 L 18.78125 -45.609375 L 18.78125 -35.90625 L 27.3125 -35.90625 L 27.3125 -26.140625 L 18.78125 -26.140625 L 18.78125 -13.75 C 18.78125 -12.425781 19.132812 -11.382812 19.84375 -10.625 C 20.550781 -9.863281 21.503906 -9.484375 22.703125 -9.484375 C 24.210938 -9.484375 25.539062 -9.875 26.6875 -10.65625 Z M 29.921875 -1.515625 "/></g></g><g style="fill:#ffffff;fill-opacity:1;"><g transform="translate(485.443658, 127.665121)"><path style="stroke:none" d="M 22.90625 0.625 C 18.914062 0.625 15.316406 -0.195312 12.109375 -1.84375 C 8.898438 -3.5 6.390625 -5.796875 4.578125 -8.734375 C 2.765625 -11.671875 1.859375 -14.992188 1.859375 -18.703125 C 1.859375 -22.378906 2.765625 -25.679688 4.578125 -28.609375 C 6.390625 -31.546875 8.882812 -33.828125 12.0625 -35.453125 C 15.25 -37.078125 18.863281 -37.890625 22.90625 -37.890625 C 26.9375 -37.890625 30.554688 -37.078125 33.765625 -35.453125 C 36.984375 -33.828125 39.484375 -31.554688 41.265625 -28.640625 C 43.054688 -25.734375 43.953125 -22.421875 43.953125 -18.703125 C 43.953125 -14.992188 43.054688 -11.671875 41.265625 -8.734375 C 39.484375 -5.796875 36.984375 -3.5 33.765625 -1.84375 C 30.554688 -0.195312 26.9375 0.625 22.90625 0.625 Z M 22.90625 -9.765625 C 25.195312 -9.765625 27.078125 -10.554688 28.546875 -12.140625 C 30.015625 -13.722656 30.75 -15.910156 30.75 -18.703125 C 30.75 -21.453125 30.015625 -23.609375 28.546875 -25.171875 C 27.078125 -26.734375 25.195312 -27.515625 22.90625 -27.515625 C 20.613281 -27.515625 18.734375 -26.734375 17.265625 -25.171875 C 15.796875 -23.609375 15.0625 -21.453125 15.0625 -18.703125 C 15.0625 -15.910156 15.796875 -13.722656 17.265625 -12.140625 C 18.734375 -10.554688 20.613281 -9.765625 22.90625 -9.765625 Z M 22.90625 -9.765625 "/></g></g><g style="fill:#ffffff;fill-opacity:1;"><g transform="translate(162.069871, 179.487247)"><path style="stroke:none" d="M 11.296875 -41.171875 L 27.40625 -41.171875 C 31.519531 -41.171875 35.054688 -40.472656 38.015625 -39.078125 C 40.984375 -37.691406 43.238281 -35.734375 44.78125 -33.203125 C 46.332031 -30.671875 47.109375 -27.703125 47.109375 -24.296875 C 47.109375 -19.503906 46.039062 -15.265625 43.90625 -11.578125 C 41.769531 -7.898438 38.769531 -5.050781 34.90625 -3.03125 C 31.039062 -1.007812 26.5625 0 21.46875 0 L 3.0625 0 Z M 21.640625 -5.109375 C 25.597656 -5.109375 29.046875 -5.910156 31.984375 -7.515625 C 34.929688 -9.128906 37.195312 -11.359375 38.78125 -14.203125 C 40.375 -17.046875 41.171875 -20.289062 41.171875 -23.9375 C 41.171875 -27.738281 39.953125 -30.707031 37.515625 -32.84375 C 35.085938 -34.976562 31.519531 -36.046875 26.8125 -36.046875 L 16.109375 -36.046875 L 9.9375 -5.109375 Z M 21.640625 -5.109375 "/></g></g><g style="fill:#ffffff;fill-opacity:1;"><g transform="translate(210.643178, 179.487247)"><path style="stroke:none" d="M 7.765625 -13.828125 L 7.765625 -13.46875 C 7.765625 -10.5625 8.585938 -8.351562 10.234375 -6.84375 C 11.878906 -5.34375 14.347656 -4.59375 17.640625 -4.59375 C 19.566406 -4.59375 21.367188 -4.914062 23.046875 -5.5625 C 24.734375 -6.207031 26.144531 -7.078125 27.28125 -8.171875 L 29.703125 -4.109375 C 28.171875 -2.703125 26.304688 -1.601562 24.109375 -0.8125 C 21.910156 -0.03125 19.597656 0.359375 17.171875 0.359375 C 14.109375 0.359375 11.457031 -0.1875 9.21875 -1.28125 C 6.988281 -2.382812 5.265625 -3.957031 4.046875 -6 C 2.835938 -8.039062 2.234375 -10.429688 2.234375 -13.171875 C 2.234375 -16.660156 2.988281 -19.796875 4.5 -22.578125 C 6.007812 -25.367188 8.109375 -27.546875 10.796875 -29.109375 C 13.484375 -30.679688 16.488281 -31.46875 19.8125 -31.46875 C 24.050781 -31.46875 27.4375 -30.257812 29.96875 -27.84375 C 32.5 -25.4375 33.765625 -22.15625 33.765625 -18 C 33.765625 -16.738281 33.625 -15.347656 33.34375 -13.828125 Z M 19.578125 -26.765625 C 16.796875 -26.765625 14.40625 -25.976562 12.40625 -24.40625 C 10.40625 -22.84375 9.050781 -20.6875 8.34375 -17.9375 L 28.46875 -17.9375 C 28.625 -20.71875 27.882812 -22.882812 26.25 -24.4375 C 24.625 -25.988281 22.398438 -26.765625 19.578125 -26.765625 Z M 19.578125 -26.765625 "/></g></g><g style="fill:#ffffff;fill-opacity:1;"><g transform="translate(246.573308, 179.487247)"><path style="stroke:none" d="M 10.640625 -9.9375 C 10.523438 -9.351562 10.46875 -8.804688 10.46875 -8.296875 C 10.46875 -7.035156 10.8125 -6.070312 11.5 -5.40625 C 12.1875 -4.738281 13.210938 -4.40625 14.578125 -4.40625 C 16.234375 -4.40625 17.726562 -4.894531 19.0625 -5.875 L 20.234375 -1.59375 C 18.347656 -0.289062 15.9375 0.359375 13 0.359375 C 10.53125 0.359375 8.539062 -0.335938 7.03125 -1.734375 C 5.519531 -3.128906 4.765625 -5.039062 4.765625 -7.46875 C 4.765625 -8.289062 4.84375 -9.078125 5 -9.828125 L 8.34375 -26.53125 L 3.0625 -26.53125 L 3.9375 -31.171875 L 9.296875 -31.171875 L 10.640625 -38 L 16.296875 -38 L 14.9375 -31.171875 L 23.875 -31.171875 L 22.9375 -26.53125 L 14 -26.53125 Z M 10.640625 -9.9375 "/></g></g><g style="fill:#ffffff;fill-opacity:1;"><g transform="translate(270.918764, 179.487247)"><path style="stroke:none" d="M 37.8125 -31.171875 L 31.640625 0 L 26.234375 0 L 27 -3.828125 C 25.582031 -2.492188 23.941406 -1.460938 22.078125 -0.734375 C 20.222656 -0.00390625 18.195312 0.359375 16 0.359375 C 13.332031 0.359375 10.957031 -0.175781 8.875 -1.25 C 6.800781 -2.332031 5.175781 -3.894531 4 -5.9375 C 2.820312 -7.976562 2.234375 -10.367188 2.234375 -13.109375 C 2.234375 -16.640625 3 -19.796875 4.53125 -22.578125 C 6.0625 -25.367188 8.164062 -27.546875 10.84375 -29.109375 C 13.53125 -30.679688 16.539062 -31.46875 19.875 -31.46875 C 22.539062 -31.46875 24.820312 -30.992188 26.71875 -30.046875 C 28.625 -29.109375 30.085938 -27.71875 31.109375 -25.875 L 32.171875 -31.171875 Z M 17.234375 -4.59375 C 19.546875 -4.59375 21.632812 -5.148438 23.5 -6.265625 C 25.363281 -7.378906 26.8125 -8.9375 27.84375 -10.9375 C 28.882812 -12.9375 29.40625 -15.210938 29.40625 -17.765625 C 29.40625 -20.546875 28.597656 -22.703125 26.984375 -24.234375 C 25.378906 -25.765625 23.085938 -26.53125 20.109375 -26.53125 C 17.796875 -26.53125 15.71875 -25.96875 13.875 -24.84375 C 12.03125 -23.726562 10.578125 -22.171875 9.515625 -20.171875 C 8.460938 -18.171875 7.9375 -15.894531 7.9375 -13.34375 C 7.9375 -10.601562 8.75 -8.457031 10.375 -6.90625 C 12.007812 -5.363281 14.296875 -4.59375 17.234375 -4.59375 Z M 17.234375 -4.59375 "/></g></g><g style="fill:#ffffff;fill-opacity:1;"><g transform="translate(311.024085, 179.487247)"><path style="stroke:none" d="M 8.46875 -31.171875 L 14.109375 -31.171875 L 7.9375 0 L 2.296875 0 Z M 12.9375 -37.171875 C 11.914062 -37.171875 11.070312 -37.503906 10.40625 -38.171875 C 9.738281 -38.835938 9.40625 -39.640625 9.40625 -40.578125 C 9.40625 -41.679688 9.785156 -42.613281 10.546875 -43.375 C 11.316406 -44.132812 12.289062 -44.515625 13.46875 -44.515625 C 14.476562 -44.515625 15.328125 -44.191406 16.015625 -43.546875 C 16.703125 -42.898438 17.046875 -42.128906 17.046875 -41.234375 C 17.046875 -40.015625 16.660156 -39.03125 15.890625 -38.28125 C 15.128906 -37.539062 14.144531 -37.171875 12.9375 -37.171875 Z M 12.9375 -37.171875 "/></g></g><g style="fill:#ffffff;fill-opacity:1;"><g transform="translate(327.430812, 179.487247)"><path style="stroke:none" d="M 11 -43.640625 L 16.640625 -43.640625 L 7.9375 0 L 2.296875 0 Z M 11 -43.640625 "/></g></g><g style="fill:#ffffff;fill-opacity:1;"><g transform="translate(343.837539, 179.487247)"><path style="stroke:none" d="M 8.46875 -31.171875 L 14.109375 -31.171875 L 7.9375 0 L 2.296875 0 Z M 12.9375 -37.171875 C 11.914062 -37.171875 11.070312 -37.503906 10.40625 -38.171875 C 9.738281 -38.835938 9.40625 -39.640625 9.40625 -40.578125 C 9.40625 -41.679688 9.785156 -42.613281 10.546875 -43.375 C 11.316406 -44.132812 12.289062 -44.515625 13.46875 -44.515625 C 14.476562 -44.515625 15.328125 -44.191406 16.015625 -43.546875 C 16.703125 -42.898438 17.046875 -42.128906 17.046875 -41.234375 C 17.046875 -40.015625 16.660156 -39.03125 15.890625 -38.28125 C 15.128906 -37.539062 14.144531 -37.171875 12.9375 -37.171875 Z M 12.9375 -37.171875 "/></g></g><g style="fill:#ffffff;fill-opacity:1;"><g transform="translate(360.244266, 179.487247)"><path style="stroke:none" d="M 24.40625 -31.46875 C 27.976562 -31.46875 30.753906 -30.5625 32.734375 -28.75 C 34.710938 -26.945312 35.703125 -24.398438 35.703125 -21.109375 C 35.703125 -19.972656 35.582031 -18.757812 35.34375 -17.46875 L 31.875 0 L 26.234375 0 L 29.703125 -17.46875 C 29.898438 -18.53125 30 -19.394531 30 -20.0625 C 30 -22.09375 29.390625 -23.65625 28.171875 -24.75 C 26.953125 -25.851562 25.148438 -26.40625 22.765625 -26.40625 C 19.703125 -26.40625 17.179688 -25.570312 15.203125 -23.90625 C 13.222656 -22.238281 11.898438 -19.757812 11.234375 -16.46875 L 7.9375 0 L 2.296875 0 L 8.46875 -31.171875 L 13.875 -31.171875 L 13.109375 -27.171875 C 15.929688 -30.035156 19.695312 -31.46875 24.40625 -31.46875 Z M 24.40625 -31.46875 "/></g></g><g style="fill:#ffffff;fill-opacity:1;"><g transform="translate(400.290768, 179.487247)"><path style="stroke:none" d="M 38.28125 -31.171875 L 32.9375 -4.234375 C 31.832031 1.328125 29.757812 5.382812 26.71875 7.9375 C 23.6875 10.488281 19.546875 11.765625 14.296875 11.765625 C 11.347656 11.765625 8.660156 11.378906 6.234375 10.609375 C 3.804688 9.847656 1.75 8.765625 0.0625 7.359375 L 3.171875 3 C 4.429688 4.132812 6.066406 5.046875 8.078125 5.734375 C 10.097656 6.421875 12.304688 6.765625 14.703125 6.765625 C 18.304688 6.765625 21.097656 5.941406 23.078125 4.296875 C 25.054688 2.648438 26.398438 0.0976562 27.109375 -3.359375 L 27.578125 -5.59375 C 24.597656 -2.726562 20.835938 -1.296875 16.296875 -1.296875 C 13.546875 -1.296875 11.117188 -1.804688 9.015625 -2.828125 C 6.921875 -3.847656 5.296875 -5.316406 4.140625 -7.234375 C 2.984375 -9.148438 2.40625 -11.40625 2.40625 -14 C 2.40625 -17.25 3.160156 -20.207031 4.671875 -22.875 C 6.179688 -25.539062 8.289062 -27.640625 11 -29.171875 C 13.707031 -30.703125 16.765625 -31.46875 20.171875 -31.46875 C 22.835938 -31.46875 25.195312 -30.96875 27.25 -29.96875 C 29.3125 -28.96875 30.832031 -27.46875 31.8125 -25.46875 L 32.9375 -31.171875 Z M 17.40625 -6.234375 C 19.757812 -6.234375 21.867188 -6.75 23.734375 -7.78125 C 25.597656 -8.820312 27.046875 -10.273438 28.078125 -12.140625 C 29.117188 -14.003906 29.640625 -16.113281 29.640625 -18.46875 C 29.640625 -20.976562 28.828125 -22.945312 27.203125 -24.375 C 25.578125 -25.8125 23.289062 -26.53125 20.34375 -26.53125 C 18 -26.53125 15.894531 -26.007812 14.03125 -24.96875 C 12.164062 -23.925781 10.710938 -22.472656 9.671875 -20.609375 C 8.628906 -18.742188 8.109375 -16.65625 8.109375 -14.34375 C 8.109375 -11.800781 8.929688 -9.8125 10.578125 -8.375 C 12.234375 -6.945312 14.507812 -6.234375 17.40625 -6.234375 Z M 17.40625 -6.234375 "/></g></g><g clip-rule="nonzero" clip-path="url(#9ce044ebe4)"><g clip-rule="nonzero" clip-path="url(#98a5af4637)"><g clip-rule="nonzero" clip-path="url(#8e36168148)"><path style=" stroke:none;fill-rule:evenodd;fill:#5271ff;fill-opacity:1;" d="M 162.152344 115.082031 C 162.152344 115.082031 155.09375 116.308594 152.113281 115.304688 C 149.128906 114.296875 144.261719 109.039062 144.261719 109.039062 C 144.261719 109.039062 145.492188 116.097656 144.484375 119.078125 C 143.476562 122.058594 138.21875 126.925781 138.21875 126.925781 C 138.21875 126.925781 145.277344 125.695312 148.257812 126.703125 C 151.238281 127.710938 156.105469 132.96875 156.105469 132.96875 C 156.105469 132.96875 154.878906 125.910156 155.886719 122.929688 C 156.894531 119.949219 162.152344 115.082031 162.152344 115.082031 Z M 136.851562 62.289062 C 136.851562 62.289062 126.148438 64.152344 121.625 62.621094 C 117.105469 61.09375 109.722656 53.121094 109.722656 53.121094 C 109.722656 53.121094 111.585938 63.824219 110.058594 68.347656 C 108.53125 72.867188 100.554688 80.25 100.554688 80.25 C 100.554688 80.25 111.261719 78.386719 115.785156 79.914062 C 120.304688 81.441406 127.6875 89.417969 127.6875 89.417969 C 127.6875 89.417969 125.824219 78.710938 127.351562 74.191406 C 128.878906 69.667969 136.851562 62.289062 136.851562 62.289062 Z M 198.660156 66.355469 C 198.660156 66.355469 182.238281 69.214844 175.304688 66.871094 C 168.367188 64.527344 157.046875 52.292969 157.046875 52.292969 C 157.046875 52.292969 159.902344 68.714844 157.558594 75.652344 C 155.214844 82.585938 142.984375 93.90625 142.984375 93.90625 C 142.984375 93.90625 159.40625 91.050781 166.339844 93.394531 C 173.277344 95.738281 184.597656 107.96875 184.597656 107.96875 C 184.597656 107.96875 181.738281 91.546875 184.082031 84.613281 C 186.425781 77.675781 198.660156 66.355469 198.660156 66.355469 "/></g></g></g></g></svg>